<?xml version="1.0" encoding="utf-8"?>
<!-- Generator: Adobe Illustrator 23.0.5, SVG Export Plug-In . SVG Version: 6.00 Build 0)  -->
<svg version="1.1" id="Layer_1" xmlns="http://www.w3.org/2000/svg" xmlns:xlink="http://www.w3.org/1999/xlink" x="0px" y="0px"
	 viewBox="0 0 100 100" style="enable-background:new 0 0 100 100;" xml:space="preserve">
<style type="text/css">
	.st0{display:none;}
	.st1{display:inline;fill:#121212;}
	.st2{fill:#14145E;}
	.st3{fill:#FFFFFF;}
</style>
<g class="st0">
	<circle class="st1" cx="50" cy="50" r="36"/>
</g>
<g>
	<path class="st2" d="M74.6,79.4H31.4c-3,0-5.4-2.4-5.4-5.4V20.4c0-3,2.4-5.4,5.4-5.4h43.2c3,0,5.4,2.4,5.4,5.4V74
		C80,77,77.6,79.4,74.6,79.4z"/>
</g>
<g>
	<path class="st2" d="M24.4,85C22,85,20,83,20,80.6V24.4c0-2.4,2-4.4,4.4-4.4h46c2.4,0,4.4,2,4.4,4.4v56.2c0,2.4-2,4.4-4.4,4.4H24.4
		z"/>
	<path class="st3" d="M70.4,20.9c1.9,0,3.4,1.5,3.4,3.4v56.2c0,1.9-1.5,3.4-3.4,3.4h-46c-1.9,0-3.4-1.5-3.4-3.4V24.4
		c0-1.9,1.5-3.4,3.4-3.4h46 M70.4,18.9h-46c-3,0-5.4,2.4-5.4,5.4v56.2c0,3,2.4,5.4,5.4,5.4h46c3,0,5.4-2.4,5.4-5.4V24.4
		C75.8,21.4,73.4,18.9,70.4,18.9L70.4,18.9z"/>
</g>
<path class="st3" d="M64.6,41.5H29.9c-1.1,0-2-0.9-2-2v-1.6c0-1.1,0.9-2,2-2h34.7c1.1,0,2,0.9,2,2v1.6
	C66.6,40.6,65.7,41.5,64.6,41.5z"/>
<path class="st3" d="M64.6,51.3H29.9c-1.1,0-2-0.9-2-2v-1.6c0-1.1,0.9-2,2-2h34.7c1.1,0,2,0.9,2,2v1.6
	C66.6,50.4,65.7,51.3,64.6,51.3z"/>
<path class="st3" d="M64.6,61H29.9c-1.1,0-2-0.9-2-2v-1.6c0-1.1,0.9-2,2-2h34.7c1.1,0,2,0.9,2,2V59C66.6,60.1,65.7,61,64.6,61z"/>
<path class="st3" d="M64.6,70.7H29.9c-1.1,0-2-0.9-2-2v-1.6c0-1.1,0.9-2,2-2h34.7c1.1,0,2,0.9,2,2v1.6
	C66.6,69.8,65.7,70.7,64.6,70.7z"/>
</svg>
