<?xml version="1.0" encoding="utf-8"?>
<!-- Generator: Adobe Illustrator 23.0.5, SVG Export Plug-In . SVG Version: 6.00 Build 0)  -->
<svg version="1.1" id="Layer_1" xmlns="http://www.w3.org/2000/svg" xmlns:xlink="http://www.w3.org/1999/xlink" x="0px" y="0px"
	 viewBox="0 0 24 24" style="enable-background:new 0 0 24 24;" xml:space="preserve">
<path d="M12,0C5.37,0,0,5.37,0,12s5.37,12,12,12s12-5.37,12-12S18.63,0,12,0z M9.08,16.08C6.83,16.08,5,14.26,5,12
	s1.82-4.08,4.08-4.08c1.1,0,2.02,0.4,2.73,1.07l-1.11,1.07c-0.3-0.29-0.83-0.63-1.63-0.63c-1.39,0-2.53,1.15-2.53,2.58
	s1.14,2.58,2.53,2.58c1.62,0,2.22-1.16,2.32-1.76H9.08v-1.4h3.86c0.04,0.2,0.06,0.41,0.06,0.68C13,14.43,11.44,16.08,9.08,16.08z
	 M19,12.58h-1.75v1.75h-1.17v-1.75h-1.75v-1.17h1.75V9.67h1.17v1.75H19V12.58z"/>
</svg>
