<?xml version="1.0" encoding="utf-8"?>
<!-- Generator: Adobe Illustrator 23.0.5, SVG Export Plug-In . SVG Version: 6.00 Build 0)  -->
<svg version="1.1" id="Layer_1" xmlns="http://www.w3.org/2000/svg" xmlns:xlink="http://www.w3.org/1999/xlink" x="0px" y="0px"
	 viewBox="0 0 85 85" style="enable-background:new 0 0 85 85;" xml:space="preserve">
<style type="text/css">
	.st0{fill:#FFFFFF;}
</style>
<g>
	<g>
		<g>
			<path class="st0" d="M0,30.74C0,20.56,0,10.37,0,0.19c28.24,0,56.48,0,84.72,0c0,12.51,0,25.02,0,37.54
				c-0.17-1.08-0.32-2.17-0.5-3.26c-0.5-3.09-1.39-6.07-2.68-8.91c-1.59-3.53-3.63-6.78-6.23-9.69c-1.98-2.22-4.15-4.18-6.55-5.9
				c-3.51-2.51-7.33-4.35-11.47-5.53c-2.77-0.79-5.6-1.26-8.47-1.41c-2.59-0.13-5.18,0.03-7.76,0.45c-3.52,0.56-6.88,1.57-10.1,3.09
				c-3.13,1.48-6.01,3.32-8.62,5.62c-2.24,1.98-4.28,4.14-6.05,6.56c-0.31,0.43-0.25,0.58,0.14,0.88c0.78,0.59,1.52,1.24,2.24,1.9
				c0.53,0.49,0.99,1.06,1.49,1.6c0.11-0.08,0.2-0.12,0.24-0.18c1.93-3,4.39-5.52,7.19-7.68C32,11.89,36.99,9.87,42.44,9
				c0.24-0.04,0.65,0.06,0.75,0.24c0.8,1.29,1.55,2.61,2.31,3.91c0.46,0.78,0.93,1.56,1.46,2.44c1.16-1.95,2.3-3.76,3.32-5.63
				c0.45-0.81,0.85-1.04,1.82-0.86c3.08,0.54,6.02,1.46,8.83,2.82c4.61,2.23,8.47,5.43,11.58,9.49c3.31,4.31,5.29,9.22,6.23,14.56
				c0.08,0.47,0.26,1.04-0.4,1.4c-1.07,0.57-2.11,1.21-3.16,1.83c-0.95,0.56-1.9,1.14-2.95,1.77c2.03,1.2,3.91,2.36,5.85,3.43
				c0.64,0.35,0.8,0.78,0.67,1.4c-0.2,1.01-0.41,2.01-0.66,3.01c-1.34,5.44-3.94,10.22-7.82,14.23c-1.87,1.93-4.02,3.57-6.02,5.34
				c0.18,0.85,0.48,1.87,0.59,2.9c0.11,1.02,0.02,2.07,0.02,3.11c-0.03,0,0.03,0.02,0.07,0c0.53-0.32,1.07-0.64,1.6-0.96
				c3.69-2.2,6.89-4.99,9.63-8.29c2.41-2.92,4.33-6.16,5.75-9.68c1.07-2.64,1.92-5.33,2.32-8.17c0.14-0.98,0.32-1.95,0.49-2.92
				c0,13.62,0,27.24,0,40.86c-28.24,0-56.48,0-84.72,0C0,68.5,0,51.78,0,35.06c0.05,0.06,0.14,0.11,0.15,0.17
				c0.41,3.49,1.57,6.76,3.16,9.84c1.52,2.95,3.2,5.84,5.01,8.63c2.21,3.41,4.83,6.53,7.68,9.43c2.06,2.1,4.18,4.14,6.39,6.07
				c1.91,1.68,3.94,3.24,6,4.74c3.4,2.46,7.02,4.57,10.91,6.17c3.61,1.49,7.3,2.6,11.26,2.43c1.38-0.06,2.83-0.29,3.86-1.26
				c1.88-1.78,3.93-3.43,5.34-5.65c1.66-2.6,1.61-5.2-0.32-7.54c-0.9-1.09-1.92-2.11-3-3.01c-1.9-1.57-3.92-2.98-6.36-3.64
				c-1.64-0.44-3.24-0.38-4.62,0.66c-1.36,1.04-2.61,2.24-3.88,3.39c-0.55,0.5-1.13,0.9-1.89,0.77c-0.82-0.14-1.68-0.23-2.42-0.57
				c-3.62-1.69-6.55-4.37-9.38-7.11c-2.66-2.57-5.19-5.3-7.59-8.13c-1.4-1.66-2.54-3.58-3.57-5.51c-1.09-2.04-1-3.21,0.8-4.85
				c0.55-0.5,1.08-1.03,1.58-1.58c1.4-1.55,2.36-3.29,2.05-5.47c-0.25-1.71-1.01-3.24-1.97-4.66c-1.52-2.24-3.08-4.44-5.38-5.97
				c-1.79-1.18-3.7-1.55-5.66-0.57c-1.1,0.55-2.09,1.32-3.07,2.07c-0.59,0.45-1.06,1.05-1.59,1.57C1.93,26.99,0.33,28.44,0,30.74z
				 M44.81,44.84c-2.94,0-5.82,0-8.78,0c0.09-0.24,0.1-0.43,0.2-0.52c0.83-0.72,1.63-1.49,2.54-2.1c1.85-1.25,3.71-2.46,4.94-4.42
				c1.1-1.73,1.11-5.2,0-6.79c-1.15-1.64-2.68-2.62-4.67-2.95c-3.6-0.6-6.59,0.59-8.62,3.48c-0.64,0.91-0.62,0.93,0.32,1.56
				c1.02,0.68,2.05,1.35,2.91,1.91c0.81-0.71,1.44-1.4,2.19-1.88c0.89-0.57,2.42-0.21,2.88,0.56c0.72,1.2,0.39,2.04-0.67,2.93
				c-1.19,1.01-2.53,1.85-3.8,2.77c-1.58,1.13-2.77,2.57-3.57,4.35c-0.73,1.62-0.52,3.33-0.53,5.02c0,0.54,0.39,0.6,0.85,0.6
				c4.44-0.01,8.88-0.01,13.32-0.01c0.16,0,0.32-0.02,0.51-0.03C44.81,47.83,44.81,46.4,44.81,44.84z M61.42,49.31
				c0-1.67,0-3.29,0-4.96c0.85,0,1.61,0,2.4,0c0-1.51,0-2.96,0-4.49c-0.83,0-1.61,0-2.45,0c0-3.9,0-7.71,0-11.59
				c-2.06,0-4.07-0.01-6.07,0.02c-0.18,0-0.43,0.2-0.54,0.37c-2.25,3.54-4.4,7.14-6.77,10.6c-1.12,1.64-1.03,3.3-0.95,5.15
				c3.09,0,6.14,0,9.24,0c0,1.68,0,3.28,0,4.91C57.99,49.31,59.63,49.31,61.42,49.31z"/>
			<path d="M0,30.74c0.33-2.3,1.93-3.75,3.48-5.24c0.54-0.52,1-1.12,1.59-1.57c0.98-0.75,1.98-1.52,3.07-2.07
				c1.96-0.98,3.88-0.61,5.66,0.57c2.31,1.52,3.86,3.73,5.38,5.97c0.97,1.43,1.72,2.95,1.97,4.66c0.32,2.18-0.64,3.92-2.05,5.47
				c-0.5,0.55-1.03,1.08-1.58,1.58c-1.8,1.64-1.89,2.81-0.8,4.85c1.03,1.93,2.17,3.85,3.57,5.51c2.39,2.83,4.92,5.55,7.59,8.13
				c2.83,2.73,5.76,5.41,9.38,7.11c0.74,0.34,1.6,0.43,2.42,0.57c0.76,0.13,1.34-0.27,1.89-0.77c1.27-1.16,2.52-2.35,3.88-3.39
				c1.37-1.04,2.97-1.1,4.62-0.66c2.44,0.65,4.46,2.06,6.36,3.64c1.09,0.9,2.11,1.92,3,3.01c1.93,2.35,1.98,4.94,0.32,7.54
				c-1.42,2.22-3.46,3.87-5.34,5.65c-1.03,0.97-2.48,1.2-3.86,1.26c-3.95,0.17-7.64-0.95-11.26-2.43c-3.9-1.6-7.51-3.71-10.91-6.17
				c-2.06-1.49-4.09-3.06-6-4.74c-2.21-1.94-4.33-3.98-6.39-6.07c-2.85-2.9-5.47-6.01-7.68-9.43c-1.81-2.79-3.49-5.68-5.01-8.63
				c-1.59-3.08-2.75-6.35-3.16-9.84c-0.01-0.06-0.1-0.11-0.15-0.17C0,33.62,0,32.18,0,30.74z"/>
			<path d="M84.72,44.36c-0.16,0.97-0.35,1.95-0.49,2.92c-0.39,2.83-1.25,5.53-2.32,8.17c-1.43,3.52-3.34,6.76-5.75,9.68
				c-2.73,3.3-5.93,6.09-9.63,8.29c-0.53,0.32-1.06,0.64-1.6,0.96c-0.04,0.02-0.1,0-0.07,0c0-1.04,0.08-2.08-0.02-3.11
				c-0.11-1.04-0.41-2.05-0.59-2.9c2.01-1.76,4.16-3.41,6.02-5.34c3.88-4.01,6.48-8.79,7.82-14.23c0.24-1,0.45-2,0.66-3.01
				c0.13-0.62-0.03-1.05-0.67-1.4c-1.94-1.06-3.82-2.23-5.85-3.43c1.05-0.63,2-1.21,2.95-1.77c1.05-0.62,2.08-1.26,3.16-1.83
				c0.67-0.35,0.48-0.93,0.4-1.4c-0.94-5.34-2.92-10.25-6.23-14.56c-3.12-4.06-6.97-7.26-11.58-9.49c-2.8-1.36-5.75-2.28-8.83-2.82
				c-0.97-0.17-1.38,0.05-1.82,0.86c-1.02,1.87-2.15,3.67-3.32,5.63c-0.53-0.88-1-1.66-1.46-2.44c-0.77-1.31-1.51-2.63-2.31-3.91
				C43.09,9.07,42.69,8.96,42.44,9C36.99,9.87,32,11.89,27.61,15.27c-2.8,2.16-5.26,4.68-7.19,7.68c-0.04,0.06-0.13,0.1-0.24,0.18
				c-0.5-0.54-0.96-1.11-1.49-1.6c-0.72-0.67-1.46-1.31-2.24-1.9c-0.39-0.3-0.45-0.45-0.14-0.88c1.77-2.42,3.81-4.58,6.05-6.56
				c2.6-2.3,5.49-4.14,8.62-5.62c3.21-1.52,6.58-2.53,10.1-3.09c2.58-0.41,5.17-0.58,7.76-0.45c2.86,0.15,5.69,0.61,8.47,1.41
				c4.15,1.18,7.96,3.02,11.47,5.53c2.41,1.72,4.57,3.69,6.55,5.9c2.6,2.91,4.63,6.16,6.23,9.69c1.28,2.84,2.18,5.82,2.68,8.91
				c0.18,1.08,0.33,2.17,0.5,3.26C84.72,39.93,84.72,42.15,84.72,44.36z"/>
			<path d="M44.81,44.84c0,1.57,0,3,0,4.48c-0.19,0.01-0.35,0.03-0.51,0.03c-4.44,0-8.88,0-13.32,0.01c-0.47,0-0.86-0.06-0.85-0.6
				c0.01-1.69-0.2-3.39,0.53-5.02c0.8-1.78,2-3.22,3.57-4.35c1.27-0.91,2.61-1.76,3.8-2.77c1.06-0.89,1.39-1.73,0.67-2.93
				c-0.46-0.77-1.99-1.13-2.88-0.56c-0.75,0.48-1.37,1.17-2.19,1.88c-0.86-0.57-1.89-1.23-2.91-1.91c-0.94-0.63-0.96-0.65-0.32-1.56
				c2.03-2.89,5.02-4.08,8.62-3.48c2,0.33,3.52,1.31,4.67,2.95c1.11,1.59,1.1,5.06,0,6.79c-1.24,1.95-3.09,3.17-4.94,4.42
				c-0.91,0.61-1.7,1.39-2.54,2.1c-0.1,0.09-0.11,0.28-0.2,0.52C38.99,44.84,41.86,44.84,44.81,44.84z"/>
			<path d="M61.42,49.31c-1.79,0-3.44,0-5.14,0c0-1.63,0-3.23,0-4.91c-3.1,0-6.14,0-9.24,0c-0.08-1.85-0.17-3.51,0.95-5.15
				c2.37-3.46,4.52-7.06,6.77-10.6c0.11-0.17,0.35-0.37,0.54-0.37c2-0.03,4.01-0.02,6.07-0.02c0,3.89,0,7.7,0,11.59
				c0.84,0,1.62,0,2.45,0c0,1.54,0,2.99,0,4.49c-0.79,0-1.55,0-2.4,0C61.42,46.02,61.42,47.63,61.42,49.31z M56.2,39.83
				c0-2.02,0-3.98,0-5.93c-1.27,1.97-2.52,3.9-3.83,5.93C53.72,39.83,54.94,39.83,56.2,39.83z"/>
			<path class="st0" d="M56.2,39.83c-1.26,0-2.48,0-3.83,0c1.31-2.03,2.56-3.97,3.83-5.93C56.2,35.86,56.2,37.81,56.2,39.83z"/>
		</g>
	</g>
</g>
</svg>
