<?xml version="1.0" encoding="utf-8"?>
<!-- Generator: Adobe Illustrator 23.0.5, SVG Export Plug-In . SVG Version: 6.00 Build 0)  -->
<svg version="1.1" id="Layer_1" xmlns="http://www.w3.org/2000/svg" xmlns:xlink="http://www.w3.org/1999/xlink" x="0px" y="0px"
	 viewBox="0 0 24 24" style="enable-background:new 0 0 24 24;" xml:space="preserve">
<path d="M14.83,6.3C14.09,6.27,13.87,6.26,12,6.26S9.91,6.27,9.17,6.3C7.27,6.39,6.39,7.29,6.3,9.17C6.27,9.91,6.26,10.13,6.26,12
	s0.01,2.09,0.04,2.83c0.09,1.88,0.97,2.78,2.87,2.87c0.74,0.03,0.96,0.04,2.83,0.04c1.87,0,2.09-0.01,2.83-0.04
	c1.9-0.09,2.78-0.99,2.87-2.87c0.03-0.74,0.04-0.96,0.04-2.83s-0.01-2.09-0.04-2.83C17.61,7.29,16.73,6.39,14.83,6.3z M12,15.6
	c-1.98,0-3.6-1.61-3.6-3.6c0-1.98,1.61-3.59,3.6-3.59s3.6,1.61,3.6,3.59S13.99,15.6,12,15.6z M15.74,9.1
	c-0.46,0-0.84-0.38-0.84-0.84s0.38-0.84,0.84-0.84c0.46,0,0.84,0.38,0.84,0.84C16.58,8.73,16.2,9.1,15.74,9.1z M14.33,12
	c0,1.29-1.05,2.33-2.33,2.33S9.67,13.29,9.67,12S10.71,9.67,12,9.67S14.33,10.71,14.33,12z M12,0C5.37,0,0,5.37,0,12s5.37,12,12,12
	s12-5.37,12-12S18.63,0,12,0z M18.96,14.89c-0.11,2.55-1.53,3.95-4.07,4.07C14.14,18.99,13.9,19,12,19s-2.14-0.01-2.89-0.04
	c-2.54-0.12-3.95-1.53-4.07-4.07C5.01,14.14,5,13.9,5,12s0.01-2.14,0.04-2.89c0.12-2.54,1.53-3.95,4.07-4.07C9.86,5.01,10.1,5,12,5
	s2.14,0.01,2.89,0.04c2.54,0.12,3.96,1.53,4.07,4.07C18.99,9.86,19,10.1,19,12S18.99,14.14,18.96,14.89z"/>
</svg>
