<?xml version="1.0" encoding="utf-8"?>
<!-- Generator: Adobe Illustrator 22.1.0, SVG Export Plug-In . SVG Version: 6.00 Build 0)  -->
<svg version="1.1" id="Layer_1" xmlns="http://www.w3.org/2000/svg" xmlns:xlink="http://www.w3.org/1999/xlink" x="0px" y="0px"
	 viewBox="0 0 1000 400" style="enable-background:new 0 0 1000 400;" xml:space="preserve">
<style type="text/css">
	.st0{display:none;}
	.st1{display:inline;fill:none;}
	.st2{fill:#FFFFFF;stroke:#FFFFFF;stroke-miterlimit:10;}
	.st3{fill:#FFFFFF;}
	.st4{fill:#14145E;}
	.st5{fill:#E31A1F;}
	.st6{fill:#DEFF1B;}
	.st7{fill:#8E131C;}
	.st8{fill:#7BFF02;}
	.st9{fill:#0A3AFF;}
	.st10{fill:#14145E;stroke:#14145E;stroke-miterlimit:10;}
	.st11{fill:none;stroke:#E31A1F;stroke-miterlimit:10;}
</style>
<g id="Layer_1_1_" class="st0">
	
		<image style="display:inline;overflow:visible;opacity:0.34;enable-background:new    ;" width="1000" height="400" xlink:href="C74067F9.jpeg"  transform="matrix(1 0 0 1 1 -3)">
	</image>
	<rect x="11" y="117" class="st1" width="30" height="26"/>
</g>
<g id="Layer_3">
</g>
<g id="Layer_2_1_">
	<path class="st2" d="M136,235c-2.1-11.1-9-18-11-20c-7.1-6.9-15.8-9.9-22-12c-1.9-0.6-2-3.3-0.1-4c1.9-0.8,4-1.7,6.1-3
		c2.9-1.7,13.2-8,18-21c5.7-15.5-0.3-29.8-4-36c-0.4-0.7-1-1.7-2-3c-0.5-0.7-9.4-12-24-13c-1.5-0.1-2.8-0.1-3.9,0c0,0-0.1,0-0.1,0
		c-37.9-0.2-66-0.2-70.9,0c-5.1,0.2-5.8,1.5-6,2c-0.1,0.4-0.1,0.8,0,1v8.1c0,0.6,0.2,1.1,0.7,1.6c0.1,0.1,0.2,0.2,0.3,0.3
		c2.7,2.3,5.4,1.3,10,3c3.2,1.2,3.8,2.4,4,3c0.2,0.6,0.2,1.3,0.1,1.8c0,0.2-0.1,0.3-0.1,0.5v122.2c0,0.3-0.1,0.6-0.3,1
		c-0.9,2-3.8,2.4-4.7,2.5c-0.1,0,0,0-4,0c0,0-2.5,0-3,0c-1.3,0-2,0-2,0s-0.8,0.4-1,1c0,0.1,0,0.1,0,0.6c0,0.3,0,0.7,0,1.4
		c0,0.4,0,0.8,0,1c0,0.6,0,1.7,0,4c0,0.2-0.2,1.8,1,3c0.6,0.6,1.5,1,2,1c0,0,0,0,1,0h0.2c28.3,0,56.5,0,84.8,0
		c3.5-0.3,4.7-0.8,4.7-0.8c0.4-0.1,0.7-0.3,1.1-0.5c2.5-1.3,10.9-5.8,17.3-14.7C130,263.2,138.9,250.4,136,235z M64,191
		c-0.4-0.6,0-36.7,0-54v-1c1.9-0.3,4.9-0.5,8.4,0c2.4,0.4,9.6,1.4,14.8,7c3.6,3.9,4.4,8.3,5.3,13c1.1,5.8,0.4,10.4,0,13
		c-0.3,2.1-0.7,4.8-2.1,8c-0.7,1.7-1.9,4.3-4.2,7c-1.2,1.3-5.3,5.8-12.2,7.3C70.3,192,65.2,192.9,64,191z M97,239.5
		c0,7.6-1.6,12-2,13c-0.8,2-1.5,3.2-2,4c-1.6,2.4-3.4,3.8-5,5c-1.6,1.2-3.7,2.8-7,4c-4.9,1.8-8.8,1.4-12,1c-1.8-0.2-4-0.6-4.5-2
		c-0.1-0.1-0.1-0.3-0.1-1.5c0-0.8-0.1-1.8-0.1-3.1c-0.1-10.3,0.2-35.5,0.2-49.1c0-0.6,0-1.3,0-1.9c2.7-0.3,6.7-0.5,11.5,0.5
		c3.4,0.7,10.3,2.1,15,7.4c3.2,3.5,4,7.5,5,12.1C97,233.3,97,236.8,97,239.5z"/>
</g>
<g id="Layer_5">
	<path class="st3" d="M204.5,123c-31.8,0-57.5,30.2-57.5,67.5s25.7,67.5,57.5,67.5s57.5-30.2,57.5-67.5S236.3,123,204.5,123z
		 M204,244.5c-13,0-23.5-23.9-23.5-53.5s10.5-53.5,23.5-53.5s23.5,23.9,23.5,53.5S217,244.5,204,244.5z"/>
</g>
<g id="H">
	<path class="st4" d="M271,123"/>
</g>
<g id="H_1_">
	<path class="st2" d="M281,132.2c0,0.5,0.1,0.9,0.3,1.3c0,0.1,0.1,0.2,0.2,0.2c1.4,1.9,2.7,1,5.1,2.4c0.6,0.4,1.1,0.7,1.4,1.1v104.1
		c-0.6,0.7-1.5,0.9-1.9,1c0,0,0,0-2,0c0,0-1.3,0-1.5,0c-0.7,0-1,0-1,0s-0.4,0.3-0.5,0.8c0,0.1,0,0.1,0,0.5c0,0.2,0,0.6,0,1.1
		c0,0.3,0,0.6,0,0.8c0,0.5,0,1.4,0,3.2c0,0.2-0.1,1.5,0.5,2.4c0.3,0.5,0.8,0.8,1,0.8c0,0,0,0,0.5,0h9l0,0H316c2.2,0,4-1.8,4-4V187
		h29.6v61c0,2.2,1.8,4,4,4h23.9l0,0H392c0.3,0.1,0.6,0.1,1,0c1.4-0.4,2-2.2,2-2.4v-4.8v-2.4c0-0.4,0-0.8,0-1.2c0-0.1,0-0.1,0-0.3
		c0-0.6,0.1-0.8,0-1s-0.2-0.3-0.4-0.5c-0.1-0.1-0.5-0.4-1.6-0.5c-0.4,0-0.6,0-1,0c-0.9,0-1.1,0-2,0c-1.7,0-3.3-0.1-5,0
		c-0.3,0-1,0.1-1.8-0.3c0,0-0.1-0.1-0.2-0.1c-0.7-0.5-1.1-1.3-1.4-2.2v-97.8c0.2-0.9,0.6-1.8,1.4-2.3c0.1-0.1,0.2-0.1,0.2-0.1
		c0.8-0.4,1.5-0.3,1.8-0.3c1.7,0.1,3.3,0,5,0c0.9,0,1.1,0,2,0c0.4,0,0.6,0,1,0c1-0.1,1.5-0.4,1.6-0.5c0.2-0.2,0.4-0.3,0.4-0.5
		s0-0.4,0-1c0-0.1,0-0.2,0-0.3c0-0.4,0-0.8,0-1.2v-2.4v-4.8c0-0.2-0.6-2-2-2.4c-0.4-0.1-0.7-0.1-1,0h-21l0.2,0.1h-17.5
		c0,0,0,0-0.1,0c-4.1,0-6.9,0.1-7.9,0.1c-2.6,0.2-3,1.2-3.1,1.6c-0.1,0.3,0,0.6,0,0.8v6.6c0,0.5,0.1,0.9,0.3,1.3
		c0,0.1,0.1,0.2,0.2,0.2c1.4,1.9,2.7,1,5.1,2.4c0.6,0.4,1.1,0.7,1.4,1.1V175H320v-48c0-2.2-1.8-4-4-4H292c0,0,0,0-0.1,0
		c-4.1,0-6.9,0.1-7.9,0.1c-2.6,0.2-3,1.2-3.1,1.6c-0.1,0.3,0,0.6,0,0.8L281,132.2L281,132.2z"/>
</g>
<g id="M">
</g>
<g id="BACKUPTEMP">
	<path class="st2" d="M412.2,132.2c0,0.5,0.1,0.9,0.3,1.3c0,0.1,0.1,0.2,0.2,0.2c1.4,1.9,2.7,1,5.1,2.4c0.6,0.4,1.1,0.7,1.4,1.1
		v104.1c-0.6,0.7-1.5,0.9-1.9,1c0,0,0,0-2,0c0,0-1.3,0-1.5,0c-0.7,0-1,0-1,0s-0.4,0.3-0.5,0.8c0,0.1,0,0.1,0,0.5c0,0.2,0,0.6,0,1.1
		c0,0.3,0,0.6,0,0.8c0,0.5,0,1.4,0,3.2c0,0.2-0.1,1.5,0.5,2.4c0.3,0.5,0.8,0.8,1,0.8c0,0,0,0,0.5,0h5.7l0,0h1.2h2.1h3.5h3.7h3.5h2.1
		h1.2l0,0h5.7c0.5,0,0.5,0,0.5,0c0.2,0,0.7-0.3,1-0.8c0.6-0.9,0.5-2.3,0.5-2.4c0-1.9,0-2.8,0-3.2c0-0.2,0-0.5,0-0.8
		c0-0.5,0-0.9,0-1.1c0-0.4,0-0.4,0-0.5c-0.1-0.5-0.5-0.8-0.5-0.8s-0.3,0-1,0c-0.2,0-1.5,0-1.5,0c-2,0-2,0-2,0
		c-0.4-0.1-1.2-0.3-1.9-1v-98.9l35,85.7h14.4l9.3-19.1L533,137v104.4c-0.6,0.6-1.4,0.8-1.8,0.9c0,0,0,0-2,0c0,0-1.3,0-1.5,0
		c-0.7,0-1,0-1,0s-0.4,0.3-0.5,0.8c0,0.1,0,0.1,0,0.5c0,0.2,0,0.6,0,1.1c0,0.3,0,0.6,0,0.8c0,0.5,0,1.4,0,3.2c0,0.2-0.1,1.5,0.5,2.4
		c0.3,0.5,0.8,0.8,1,0.8c0,0,0,0,0.5,0h5.7l0,0h1.2h2h12.9h1.2h9.8h0.1h0h0.5h0.5h0h14l0,0c0.2,0,0.3,0,0.5-0.1c1.4-0.4,2-2.2,2-2.4
		v-8.3c0-0.1,0-0.1,0-0.3c0-0.6,0.1-0.8,0-1s-0.2-0.3-0.4-0.5c-0.1-0.1-0.5-0.4-1.6-0.5c-0.4,0-0.6,0-1,0c-0.9,0-1.1,0-2,0
		c-1.7,0-3.3-0.1-5,0c-0.3,0-1,0.1-1.8-0.3c0,0-0.1-0.1-0.2-0.1c-0.7-0.5-1.1-1.3-1.4-2.2v-97.7c0.2-0.9,0.6-1.8,1.4-2.3
		c0.1-0.1,0.2-0.1,0.2-0.1c0.8-0.4,1.5-0.3,1.8-0.3c1.7,0.1,3.3,0,5,0c0.9,0,1.1,0,2,0c0.4,0,0.6,0,1,0c1-0.1,1.5-0.4,1.6-0.5
		c0.2-0.2,0.3-0.3,0.4-0.5s0-0.4,0-1c0-0.1,0-0.2,0-0.3v-8.3c0-0.2-0.6-2-2-2.4c-0.4-0.1-0.7-0.1-1,0h-13.9c-0.2,0-0.4-0.1-0.6-0.1
		H537c0,0,0,0,0,0l0,0h-2h-3.8H531l-35.5,69.3L463,123H463h0h-26.9H436h-10.7h-2.1H420v0c-2.4,0-4,0.1-4.7,0.1
		c-2.6,0.2-3,1.2-3.1,1.6c-0.1,0.3,0,0.6,0,0.8V132.2z"/>
	<path class="st2" d="M397.5,122.6"/>
</g>
<g id="A">
	<path class="st2" d="M714.5,239.8c-0.1-0.2-0.2-0.4-0.4-0.5c-0.1-0.1-0.5-0.4-1.6-0.5c-0.4,0-0.6,0-1,0c-0.9,0-1.1,0-2,0
		c-1.7,0-3.3-0.1-5,0c-0.3,0-1,0.1-1.8-0.3c0,0-0.1-0.1-0.2-0.1c-0.4-0.3-0.7-0.6-0.9-1.1c-0.1-0.7-0.3-1.4-0.4-2.1L660,123h-17.1
		l-10,22.8l-37.2,81.6c0,0.1-0.1,0.2-0.1,0.3l-4.3,9.5L589,242h-5c-1.1,0-2,0.9-2,2v6c0,1.1,0.9,2,2,2h22c1.1,0,2-0.9,2-2v-6
		c0-1.1-0.9-2-2-2h-7l0.1-0.2l0,0l4-8.8l1.9-4.1l7.8-16.9h41l11.6,27.6c-1,0.3-1.8,0.4-2.7,1.5c-0.1,0.1-0.1,0.2-0.2,0.3
		c-0.2,0.3-0.3,0.8-0.3,1.3v6.7c0,0.2-0.1,0.5,0,0.8c0.4,1.5,3.8,1.9,3.8,1.9h14h16h16c0.2,0,0.4,0,0.5-0.1c1.4-0.4,1.9-2.1,2-2.4
		v-8.4c0-0.1,0-0.2,0-0.3C714.6,240.2,714.6,240,714.5,239.8z M618.3,200l15.9-34.4l14.5,34.4H618.3z"/>
</g>
<g id="N">
	<path class="st2" d="M823.1,231C823.1,231,823.1,231,823.1,231l0.1-95.4c0.6-0.9,1.5-1.1,1.9-1.2c0,0,0,0,2,0c0,0,1.3,0,1.5,0
		c0.7,0,1,0,1,0s0.4-0.4,0.5-1c0-0.1,0-0.1,0-0.6c0-0.3,0-0.7,0-1.3c0-0.4,0-0.7,0-0.9c0-0.6,0-1.6,0-3.8c0-0.2,0.1-1.7-0.5-2.9
		c-0.3-0.6-0.8-0.9-1-0.9c0,0,0,0-0.5,0h-5.7l0,0h-17.2l0,0h-5.7c-0.5,0-0.5,0-0.5,0c-0.2,0-0.7,0.3-1,0.9c-0.6,1.1-0.5,2.7-0.5,2.9
		c0,2.2,0,3.3,0,3.8c0,0.2,0,0.6,0,0.9c0,0.6,0,1,0,1.3c0,0.5,0,0.5,0,0.6c0.1,0.6,0.5,1,0.5,1s0.3,0,1,0c0.2,0,1.5,0,1.5,0
		c2,0,2,0,2,0c0.3,0.1,0.8,0.2,1.3,0.6l0.2,1l0,78.9L764,123l-1.3,0c0,0,0,0,0,0h-30.2v0c-2.4,0-4,0.1-4.7,0.1
		c-2.6,0.2-3,1.3-3.1,1.7c-0.1,0.3,0,0.7,0,0.8v6.9c0,0.5,0.1,1,0.3,1.3c0,0.1,0.1,0.2,0.2,0.3c1.4,1.9,2.7,1.1,5.1,2.6
		c0.6,0.4,1.1,0.8,1.4,1.1V247c-0.6,0.8-1.5,1-1.9,1c0,0,0,0-2,0c0,0-1.3,0-1.5,0c-0.7,0-1,0-1,0s-0.4,0.3-0.5,0.9
		c0,0.1,0,0.1,0,0.5c0,0.3,0,0.6,0,1.2c0,0.4,0,0.6,0,0.9c0,0.5,0,1.4,0,3.4c0,0.2-0.1,1.6,0.5,2.6c0.3,0.6,0.8,0.9,1,0.9
		c0,0,0,0,0.5,0h5.7l0,0h17.2l0,0h5.7c0.5,0,0.5,0,0.5,0c0.2,0,0.7-0.3,1-0.9c0.6-1,0.5-2.4,0.5-2.6c0-1.9,0-2.9,0-3.4
		c0-0.2,0-0.5,0-0.9c0-0.5,0-0.9,0-1.1c0-0.5,0-0.5,0-0.5c-0.1-0.5-0.5-0.9-0.5-0.9s-0.3,0-1,0c-0.2,0-1.5,0-1.5,0c-2,0-2,0-2,0
		c-0.4-0.1-1.2-0.3-1.9-1V143.3l33.3,85.4l-0.1,0.1l1.4,3.4l0.4,0.9h0l10.5,25.2h27L823.1,231L823.1,231z"/>
</g>
<g id="NN">
	<path class="st3" d="M974,250c0,0,0.1,0,0.1,0V137.8c0.8-1,1.9-1.3,2.4-1.4c0,0,0,0,2.6,0c0,0,1.6,0,1.9,0c0.9,0,1.3,0,1.3,0
		s0.5-0.4,0.7-1.1c0-0.1,0-0.1,0-0.7c0-0.3,0-0.8,0-1.5c0-0.5,0-0.9,0-1.1c0-0.7,0-1.9,0-4.5c0-0.2,0.1-2-0.7-3.4
		c-0.4-0.7-1-1.1-1.3-1.1c0,0,0,0-0.7,0h-7.3l0,0h-21.8l0,0H944c-0.6,0-0.6,0-0.7,0c-0.3,0-0.9,0.4-1.3,1.1
		c-0.8,1.3-0.7,3.1-0.7,3.4c0,2.6,0,3.8,0,4.5c0,0.3,0,0.6,0,1.1c0,0.7,0,1.2,0,1.5c0,0.6,0,0.6,0,0.7c0.1,0.7,0.7,1.1,0.7,1.1
		s0.4,0,1.3,0c0.3,0,1.9,0,1.9,0c2.6,0,2.6,0,2.6,0c0.3,0.1,1,0.3,1.7,0.7l0.2,1.1l0,92.8L898.9,123l-1.6,0c0,0,0,0,0,0h-38.3v0
		c-3,0-5.1,0.1-6,0.1c-3.3,0.2-3.8,1.5-3.9,2c-0.1,0.4,0,0.8,0,1v8.1c0,0.6,0.2,1.1,0.4,1.6c0.1,0.1,0.1,0.2,0.2,0.3
		c1.8,2.3,3.5,1.3,6.5,3c0.8,0.5,1.3,0.9,1.7,1.3v128.3c-0.8,0.9-1.9,1.1-2.4,1.2c0,0,0,0-2.6,0c0,0-1.6,0-1.9,0c-0.9,0-1.3,0-1.3,0
		s-0.5,0.4-0.7,1c0,0.1,0,0.1,0,0.6c0,0.3,0,0.7,0,1.4c0,0.4,0,0.8,0,1c0,0.6,0,1.7,0,4c0,0.2-0.1,1.8,0.7,3c0.4,0.6,1,1,1.3,1
		c0,0,0,0,0.7,0h7.3l0,0h21.8l0,0h7.3c0.6,0,0.6,0,0.7,0c0.3,0,0.9-0.4,1.3-1c0.8-1.2,0.7-2.8,0.7-3c0-2.3,0-3.4,0-4
		c0-0.2,0-0.6,0-1c0-0.6,0-1.1,0-1.4c0-0.5,0-0.5,0-0.6c-0.1-0.6-0.7-1-0.7-1s-0.4,0-1.3,0c-0.3,0-1.9,0-1.9,0c-2.6,0-2.6,0-2.6,0
		c-0.5-0.1-1.6-0.3-2.4-1.2V146.9l42.3,100.4l-0.1,0.1l1.8,4l0.5,1.1h0l13.4,29.6H974L974,250L974,250z"/>
</g>
<g id="Layer_12">
	<g id="Layer_13">
		<path class="st5" d="M437,312c-5.5,2.2-13.7,4.5-23,3c-6.2-1-9.5-3.2-16-6c-12.2-5.4-21-8.4-32-9c-7.5-0.4-13.6,0.6-22,2
			c-7.7,1.3-11.5,1.9-16.1,4c-5.1,2.3-6.6,4.1-13.9,7c-4.3,1.7-8,2.7-9,3c-2.2,0.6-4.5,1.1-9,2c-3.4,0.7-4.6,0.9-6,1
			c-2.2,0.2-3.6,0.1-6,0c-4.5-0.1-5.5,0-9,0c-5.5-0.1-9.7-0.6-13-1c-7.4-0.9-15-2.7-26-6c-17-5.1-17.3-6.7-27-9
			c-11.6-2.8-21.4-3.7-28-4c-0.7-4.3-1.3-8.7-2-13c5.4-0.4,13.5-0.6,23,1c2.8,0.5,5.2,1,7.4,1.6c7.4,2.1,11.9,4.1,19.6,7.4
			c6.5,2.8,11,4.6,15,6c13.8,4.7,25.7,4.3,35,4c11.5-0.4,18.4-0.6,27-4c9.7-3.9,11.8-6.2,20-10c24.4-11.4,50-5.4,56-4
			c6.5,1.5,16.2,4.5,27,11c2.5,1.1,4.5,1.7,6,2c1.6,0.4,2,0.4,6,1c5.5,0.9,5,1,6,1c4.6,0,6.6-2.2,8-1c0.8,0.6,0.5,1.6,1,5
			C436.3,309.2,436.7,310.9,437,312z"/>
		<path class="st6" d="M396,313"/>
	</g>
	<g id="Layer_16">
		<path class="st7" d="M435.9,335.8c0.1,0,0.3,0,0.5,0c0,0,0,0,0,0c0.1-0.3,2.3-4.5,3.4-6.8c0-0.1,0-0.2-0.1-0.3
			c-2.4-0.9-5,0.4-5.7,2.4C433.4,332.8,434.2,334.8,435.9,335.8z"/>
		<path class="st7" d="M501.2,317.8c0.1,0,0.3,0,0.5,0c0,0,0,0,0,0c0.1-0.3,2.3-4.5,3.4-6.8c0-0.1,0-0.2-0.1-0.3
			c-2.4-0.9-5,0.4-5.7,2.4C498.8,314.8,499.6,316.8,501.2,317.8z"/>
		<path class="st7" d="M588.1,335.7c0,0.1,0.1,0.1,0.1,0.1c0.8-0.7,1.8-1.1,3.1-1.1c0,0,0,0,0,0s0,0,0,0c0,0,0,0,0.1,0
			c0.3,0,0.5,0,0.7,0.1c0,0,0.1,0,0.1,0c1.1-1.4,1.8-3,2.1-4.6c-0.1,0-0.3,0-0.4,0c-5.4,0.2-6.5-6.8-2.9-9.2
			c-4.6-2.9-11.3,3.1-7.6,8.3c1.6,2.3,3.1,4.4,4.1,5.8C587.9,335.4,588.1,335.7,588.1,335.7z"/>
		<path class="st7" d="M588,336"/>
	</g>
	<g id="Layer_14">
		<path class="st5" d="M591,312c0.2,0,0.6,0,1,0c2,0.1,3.5,0.8,4,1c3.5,1.5,9,0.9,12.1,0.5c0.8-0.1,2-0.2,3.5-0.5
			c3.1-0.8,5.8-2.4,12.5-5.5c8.4-3.8,18.5-8,30.9-9.5c4.7-0.6,10.5-1.3,18,0c2.5,0.4,8.7,2.5,21.2,6.5c3.1,1,6,2,9.8,3.5
			c2.4,0.9,2.7,1.1,5,2c4,1.5,7.2,2.5,9,3c2.1,0.6,4.6,1.3,8,2c1.2,0.3,2.8,0.5,6,1c3.7,0.6,5.6,0.9,7,1c2.7,0.2,4.7,0.1,7,0
			c8.3-0.5,12.4-0.7,14-1c3.5-0.7,8.7-2.8,19-7c1.3-0.5,2.8-1.1,5-2c3.4-1.3,4.6-1.7,8-3c4.2-1.6,3.4-1.5,5-2c1.9-0.6,5.4-1.7,10-2
			c2.3-0.2,4.4-0.1,6,0c4.2,0.3,7.6,1.2,10,2c0.7-4.7,1.3-9.3,2-14c-1.8-0.4-4.2-0.8-7-1c-5.9-0.5-10.4-0.1-12,0
			c-1.5,0.1-7,0.7-14,3c-3.4,1.1-6.3,2.4-12,5c-8.9,4-8.1,4-11,5c-4.3,1.5-8.2,2-16,3c-4.5,0.6-6.8,0.9-9,1c-7.5,0.3-13.2-0.8-19-2
			c-7.1-1.4-12.3-3.2-15.4-4.3c-6.8-2.4-9.7-4.1-13.6-5.7c-9.8-4-18.2-4.5-28-5c-8.6-0.5-19.2-1-32,3c-6,1.9-10.8,4.2-14,6
			c-4.8,3.7-9.3,5.3-12,6c-3.2,0.9-5.5,1.7-8,1c-1.3-0.3-2.2-1-4-1c-0.8,0-1.8,0.1-2.9-0.5c-0.7-0.3-0.8-0.6-1.1-0.5
			c-0.7,0.1-1,1.3-2,6C591.5,309.3,591,311.9,591,312z"/>
		<path class="st8" d="M678,306"/>
		<rect x="591" y="311" class="st5" width="5" height="2"/>
		<path class="st5" d="M755,304"/>
		<path class="st5" d="M591.1,305.7c-0.1,0.2-0.3,0.3-0.5,0.3c-9.3-1.6-22.2-3.6-37.7-4.9c-20.2-1.8-45.2-2.9-76,0
			c-10.6,1-24.6,2.7-41,6c-0.3-3.7-0.7-7.3-1-11c6.5-2.4,14.2-4.7,23-6c3.1-0.5,6.1-0.8,9-1c0,0,50.9-8.4,101,0c5.2,0.9,10,2,10,2
			c6.6,1.5,12.1,3.3,16.6,4.9c0.2,0.1,0.3,0.4,0.3,0.6C593.6,299.5,592.4,302.6,591.1,305.7z"/>
		<path class="st9" d="M555,300"/>
		<path class="st5" d="M590,305"/>
		
			<rect x="589.8" y="303.7" transform="matrix(0.8944 -0.4472 0.4472 0.8944 -73.8647 296.8255)" class="st5" width="3.8" height="2.2"/>
		<rect x="436" y="305.9" transform="matrix(0.9812 -0.1931 0.1931 0.9812 -50.9185 90.3486)" class="st5" width="4.1" height="1"/>
		<rect x="426" y="302" class="st5" width="4" height="2"/>
		<rect x="433" y="311" transform="matrix(0.9663 -0.2574 0.2574 0.9663 -65.6458 122.4832)" class="st5" width="4" height="2"/>
		<path class="st5" d="M435.3,335c-5.5,2.2-13.7,4.5-23,3c-6.2-1-9.5-3.2-16-6c-12.2-5.4-21-8.4-32-9c-7.5-0.4-13.6,0.6-22,2
			c-7.7,1.3-11.5,1.9-16.1,4c-5.1,2.3-6.6,4.1-13.9,7c-4.3,1.7-8,2.7-9,3c-2.2,0.6-4.5,1.1-9,2c-3.4,0.7-4.6,0.9-6,1
			c-2.2,0.2-3.6,0.1-6,0c-4.5-0.1-5.5,0-9,0c-5.5-0.1-9.7-0.6-13-1c-7.4-0.9-15-2.7-26-6c-17-5.1-17.3-6.7-27-9
			c-11.6-2.8-21.4-3.7-28-4c-0.7-4.3-1.3-8.7-2-13c5.4-0.4,13.5-0.6,23,1c2.8,0.5,5.2,1,7.4,1.6c7.4,2.1,11.9,4.1,19.6,7.4
			c6.5,2.8,11,4.6,15,6c13.8,4.7,25.7,4.3,35,4c11.5-0.4,18.4-0.6,27-4c9.7-3.9,11.8-6.2,20-10c24.4-11.4,50-5.4,56-4
			c6.5,1.5,16.2,4.5,27,11c2.5,1.1,4.5,1.7,6,2c1.6,0.4,2,0.4,6,1c5.5,0.9,5,1,6,1c4.6,0,6.6-2.2,8-1c0.8,0.6,0.5,1.6,1,5
			C434.6,332.1,435,333.9,435.3,335z"/>
		<path class="st6" d="M394.3,336"/>
		<path class="st5" d="M589.3,335c0.2,0,0.6,0,1,0c2,0.1,3.5,0.8,4,1c3.5,1.5,9,0.9,12.1,0.5c0.8-0.1,2-0.2,3.5-0.5
			c3.1-0.8,5.8-2.4,12.5-5.5c8.4-3.8,18.5-8,30.9-9.5c4.7-0.6,10.5-1.3,18,0c2.5,0.4,8.7,2.5,21.2,6.5c3.1,1,6,2,9.8,3.5
			c2.4,0.9,2.7,1.1,5,2c4,1.5,7.2,2.5,9,3c2.1,0.6,4.6,1.3,8,2c1.2,0.3,2.8,0.5,6,1c3.7,0.6,5.6,0.9,7,1c2.7,0.2,4.7,0.1,7,0
			c8.3-0.5,12.4-0.7,14-1c3.5-0.7,8.7-2.8,19-7c1.3-0.5,2.8-1.1,5-2c3.4-1.3,4.6-1.7,8-3c4.2-1.6,3.4-1.5,5-2c1.9-0.6,5.4-1.7,10-2
			c2.3-0.2,4.4-0.1,6,0c4.2,0.3,7.6,1.2,10,2c0.7-4.7,1.3-9.3,2-14c-1.8-0.4-4.2-0.8-7-1c-5.9-0.5-10.4-0.1-12,0
			c-1.5,0.1-7,0.7-14,3c-3.4,1.1-6.3,2.4-12,5c-8.9,4-8.1,4-11,5c-4.3,1.5-8.2,2-16,3c-4.5,0.6-6.8,0.9-9,1c-7.5,0.3-13.2-0.8-19-2
			c-7.1-1.4-12.3-3.2-15.4-4.3c-6.8-2.4-9.7-4.1-13.6-5.7c-9.8-4-18.2-4.5-28-5c-8.6-0.5-19.2-1-32,3c-6,1.9-10.8,4.2-14,6
			c-4.8,3.7-9.3,5.3-12,6c-3.2,0.9-5.5,1.7-8,1c-1.3-0.3-2.2-1-4-1c-0.8,0-1.8,0.1-2.9-0.5c-0.7-0.3-0.8-0.6-1.1-0.5
			c-0.7,0.1-1,1.3-2,6C589.8,332.3,589.3,334.9,589.3,335z"/>
		<path class="st8" d="M676.3,329"/>
		<rect x="589.3" y="334" class="st5" width="5" height="2"/>
		<path class="st5" d="M753.3,327"/>
		<path class="st5" d="M589.4,328.6c-0.1,0.2-0.3,0.3-0.5,0.3c-9.3-1.6-22.2-3.6-37.7-4.9c-20.2-1.8-45.2-2.9-76,0
			c-10.6,1-24.6,2.7-41,6c-0.3-3.7-0.7-7.3-1-11c6.5-2.4,14.2-4.7,23-6c3.1-0.5,6.1-0.8,9-1c0,0,50.9-8.4,101,0c5.2,0.9,10,2,10,2
			c6.6,1.5,12.1,3.3,16.6,4.9c0.2,0.1,0.3,0.4,0.3,0.6C591.9,322.5,590.6,325.6,589.4,328.6z"/>
		<path class="st9" d="M553.3,323"/>
		<path class="st5" d="M588.3,328"/>
		
			<rect x="588.1" y="326.7" transform="matrix(0.8944 -0.4472 0.4472 0.8944 -84.3289 298.4758)" class="st5" width="3.8" height="2.2"/>
		
			<rect x="434.3" y="328.9" transform="matrix(0.9812 -0.1931 0.1931 0.9812 -55.3887 90.4452)" class="st5" width="4.1" height="1"/>
		<rect x="424.3" y="325" class="st5" width="4" height="2"/>
		<rect x="431.3" y="334" transform="matrix(0.9663 -0.2574 0.2574 0.9663 -71.6195 122.8098)" class="st5" width="4" height="2"/>
		<path class="st10" d="M179.3,321"/>
		<path class="st11" d="M178.8,322.5"/>
		<path class="st11" d="M176.8,308.5c5.6-0.1,14,0.1,24,2c17.5,3.3,23.7,8.5,37,13c3.5,1.2,30.7,10.1,60,3c20.1-4.9,18.9-11.8,40-16
			c19.9-4,36.6-0.8,46,1c14.4,2.8,21.8,13.8,39,14c4.6,0.1,8.5-0.5,11-1c0.3,2,0.7,4,1,6c3.8-0.8,8.9-1.9,15-3c4.8-0.9,15.8-3,28-4
			c14.4-1.2,25.4-1.1,35-1c29.6,0.3,51.2,3.1,58,4c7.8,1.1,14.3,2.2,19,3c0.7-2,1.3-4,2-6c1.3,0.6,3.4,1.5,6,2
			c10.2,1.9,18.3-4.3,25-8c18-9.8,46.6-8.9,64-5c16.1,3.6,14.5,8,34,12c20.3,4.1,36.3,1,41,0c7.5-1.6,9.8-4.6,28-11
			c5.7-2,10.9-3.7,18-4c1.5-0.1,3.5-0.1,5.7,0.1c3,0.2,5.7,0.7,7.9,1.2c1,0.3,1.9,0.5,2.5,0.7"/>
		<path class="st11" d="M589.8,325.5"/>
		<path class="st11" d="M816.8,322.5"/>
		<path class="st11" d="M176.8,308.5l2,14c7,0.3,17.5,1.2,30,4c18.8,4.2,22.1,8.2,37,12c6.3,1.6,29.8,7.3,56,1
			c19-4.5,18.3-10.3,38-14c10.1-1.9,23.9-4.5,40,0c16.3,4.5,22,12.7,38,13c7.7,0.1,14-1.6,18-3c-1-5.3-2-10.7-3-16
			c2.1-0.8,5.2-1.8,9-3c6.5-2,27.4-8,75-8c37.4,0,53.7,3.7,59,5c7.1,1.7,12.9,3.6,17,5c-0.4,1.6-0.8,3.3-1.2,4.9
			c-1,4-1.9,8-2.8,12.1c2.7,0.6,6.9,1.2,12,1c10.6-0.5,16.8-4.3,26-8c7.6-3.1,18.8-7.6,32-8c13.6-0.4,25.1,3.6,32,6
			c9.1,3.2,10,4.8,20,8c5.2,1.6,13.3,4.2,24,5c5.7,0.5,17.9,1.3,32-3c0.5-0.2,9.7-3.8,28-11c3.4-1.3,8.4-3.3,15-3
			c5.2,0.2,9.3,1.8,12,3"/>
		<path class="st11" d="M823.1,311.5"/>
		<polygon class="st11" points="823.8,311.5 822.8,311.5 821.8,325.5 820.4,324.9 		"/>
		<path class="st11" d="M822.2,311"/>
	</g>
	<path class="st10" d="M181,298"/>
	<path class="st11" d="M180.5,299.5"/>
	<path class="st10" d="M244.6,420.6"/>
	<path class="st11" d="M244.1,422.1"/>
	<path class="st11" d="M178.5,285.5c5.6-0.1,14,0.1,24,2c17.5,3.3,23.7,8.5,37,13c3.5,1.2,30.7,10.1,60,3c20.1-4.9,18.9-11.8,40-16
		c19.9-4,36.6-0.8,46,1c14.4,2.8,21.8,13.8,39,14c4.6,0.1,8.5-0.5,11-1c0.3,2,0.7,4,1,6c3.8-0.8,8.9-1.9,15-3c4.8-0.9,15.8-3,28-4
		c14.4-1.2,25.4-1.1,35-1c29.6,0.3,51.2,3.1,58,4c7.8,1.1,14.3,2.2,19,3c0.7-2,1.3-4,2-6c1.3,0.6,3.4,1.5,6,2
		c10.2,1.9,18.3-4.3,25-8c18-9.8,46.6-8.9,64-5c16.1,3.6,14.5,8,34,12c20.3,4.1,36.3,1,41,0c7.5-1.6,9.8-4.6,28-11
		c5.7-2,10.9-3.7,18-4c1.5-0.1,3.5-0.1,5.7,0.1c3,0.2,5.7,0.7,7.9,1.2c1,0.3,1.9,0.5,2.5,0.7"/>
	<path class="st11" d="M591.5,302.5"/>
	<path class="st11" d="M818.5,299.5"/>
	<path class="st11" d="M178.5,285.5l2,14c7,0.3,17.5,1.2,30,4c18.8,4.2,22.1,8.2,37,12c6.3,1.6,29.8,7.3,56,1
		c19-4.5,18.3-10.3,38-14c10.1-1.9,23.9-4.5,40,0c16.3,4.5,22,12.7,38,13c7.7,0.1,14-1.6,18-3c-1-5.3-2-10.7-3-16
		c2.1-0.8,5.2-1.8,9-3c6.5-2,27.4-8,75-8c37.4,0,53.7,3.7,59,5c7.1,1.7,12.9,3.6,17,5c-0.4,1.6-0.8,3.3-1.2,4.9c-1,4-1.9,8-2.8,12.1
		c2.7,0.6,6.9,1.2,12,1c10.6-0.5,16.8-4.3,26-8c7.6-3.1,18.8-7.6,32-8c13.6-0.4,25.1,3.6,32,6c9.1,3.2,10,4.8,20,8
		c5.2,1.6,13.3,4.2,24,5c5.7,0.5,17.9,1.3,32-3c0.5-0.2,9.7-3.8,28-11c3.4-1.3,8.4-3.3,15-3c5.2,0.2,9.3,1.8,12,3"/>
	<path class="st11" d="M824.8,288.5"/>
	<g>
		<g>
			<path class="st11" d="M589,369.4"/>
		</g>
	</g>
	<polygon class="st11" points="825.5,288.5 824.5,288.5 823.5,302.5 822.1,301.9 	"/>
	<path class="st11" d="M824,288.1"/>
	<g id="Layer_15">
	</g>
</g>
</svg>
