<?xml version="1.0" encoding="utf-8"?>
<!-- Generator: Adobe Illustrator 23.0.5, SVG Export Plug-In . SVG Version: 6.00 Build 0)  -->
<svg version="1.1" id="Layer_1" xmlns="http://www.w3.org/2000/svg" xmlns:xlink="http://www.w3.org/1999/xlink" x="0px" y="0px"
	 viewBox="0 0 24 24" style="enable-background:new 0 0 24 24;" xml:space="preserve">
<style type="text/css">
	.st0{fill-rule:evenodd;clip-rule:evenodd;}
</style>
<path class="st0" d="M12,0C5.37,0,0,5.37,0,12c0,5.08,3.16,9.43,7.63,11.17c-0.11-0.95-0.2-2.41,0.04-3.44
	c0.22-0.94,1.41-5.97,1.41-5.97s-0.36-0.72-0.36-1.78c0-1.67,0.97-2.91,2.17-2.91c1.02,0,1.52,0.77,1.52,1.69
	c0,1.03-0.65,2.57-0.99,3.99c-0.28,1.19,0.6,2.17,1.78,2.17c2.13,0,3.77-2.25,3.77-5.49c0-2.87-2.06-4.88-5.01-4.88
	c-3.41,0-5.42,2.56-5.42,5.21c0,1.03,0.4,2.14,0.89,2.74c0.1,0.12,0.11,0.22,0.08,0.35L7.17,16.2c-0.05,0.22-0.17,0.27-0.4,0.16
	c-1.5-0.7-2.44-2.89-2.44-4.65c0-3.78,2.75-7.26,7.93-7.26c4.16,0,7.4,2.97,7.4,6.93c0,4.14-2.61,7.46-6.23,7.46
	c-1.22,0-2.36-0.63-2.75-1.38l-0.75,2.85c-0.27,1.04-1,2.35-1.49,3.15C9.57,23.81,10.76,24,12,24c6.63,0,12-5.37,12-12
	C24,5.37,18.63,0,12,0z"/>
</svg>
