<?xml version="1.0" encoding="utf-8"?>
<!-- Generator: Adobe Illustrator 23.0.5, SVG Export Plug-In . SVG Version: 6.00 Build 0)  -->
<svg version="1.1" id="Layer_1" xmlns:serif="http://www.serif.com/"
	 xmlns="http://www.w3.org/2000/svg" xmlns:xlink="http://www.w3.org/1999/xlink" x="0px" y="0px" viewBox="0 0 24 24"
	 style="enable-background:new 0 0 24 24;" xml:space="preserve">
<style type="text/css">
	.st0{fill-rule:evenodd;clip-rule:evenodd;}
</style>
<path id="telegram-4" class="st0" d="M12,0C5.37,0,0,5.37,0,12c0,6.63,5.37,12,12,12c6.63,0,12-5.37,12-12C24,5.37,18.63,0,12,0z
	 M15.22,17.87c0.19,0.13,0.43,0.17,0.65,0.08c0.21-0.08,0.37-0.27,0.42-0.49c0.51-2.38,1.74-8.41,2.2-10.58
	c0.03-0.16-0.02-0.33-0.15-0.44c-0.13-0.11-0.31-0.14-0.47-0.08c-2.45,0.91-9.98,3.73-13.06,4.87c-0.2,0.07-0.32,0.26-0.32,0.47
	c0.01,0.21,0.15,0.39,0.35,0.44c1.38,0.41,3.19,0.99,3.19,0.99s0.85,2.56,1.29,3.86c0.06,0.16,0.18,0.29,0.35,0.34
	c0.17,0.04,0.35,0,0.47-0.12c0.71-0.67,1.81-1.7,1.81-1.7S14.04,17.03,15.22,17.87z M8.8,12.81l0.98,3.23L10,13.99
	c0,0,3.78-3.41,5.94-5.36c0.06-0.06,0.07-0.15,0.02-0.22c-0.05-0.07-0.15-0.08-0.22-0.04C13.24,9.98,8.8,12.81,8.8,12.81z"/>
</svg>
