<?xml version="1.0" encoding="utf-8"?>
<!-- Generator: Adobe Illustrator 23.0.5, SVG Export Plug-In . SVG Version: 6.00 Build 0)  -->
<svg version="1.1" id="Layer_1" xmlns="http://www.w3.org/2000/svg" xmlns:xlink="http://www.w3.org/1999/xlink" x="0px" y="0px"
	 viewBox="0 0 24 24" style="enable-background:new 0 0 24 24;" xml:space="preserve">
<path d="M12,0C5.37,0,0,5.37,0,12s5.37,12,12,12s12-5.37,12-12S18.63,0,12,0z M18.07,9.65c0.18,4.04-2.83,8.54-8.16,8.54
	c-1.62,0-3.13-0.48-4.4-1.29c1.52,0.18,3.04-0.24,4.25-1.19c-1.26-0.02-2.32-0.85-2.68-1.99c0.45,0.09,0.89,0.06,1.3-0.05
	c-1.38-0.28-2.34-1.52-2.3-2.85c0.39,0.22,0.83,0.34,1.3,0.36c-1.28-0.85-1.64-2.54-0.89-3.84c1.42,1.74,3.53,2.88,5.92,3
	c-0.42-1.8,0.94-3.53,2.8-3.53c0.83,0,1.57,0.35,2.1,0.91c0.65-0.13,1.27-0.37,1.82-0.7c-0.22,0.67-0.67,1.23-1.26,1.59
	c0.58-0.07,1.14-0.22,1.65-0.45C19.11,8.73,18.63,9.24,18.07,9.65z"/>
</svg>
